<?xml version="1.0" standalone="no"?>
<!DOCTYPE svg PUBLIC "-//W3C//DTD SVG 20010904//EN"
 "http://www.w3.org/TR/2001/REC-SVG-20010904/DTD/svg10.dtd">
<svg version="1.0" xmlns="http://www.w3.org/2000/svg"
 width="200.000000pt" height="200.000000pt" viewBox="0 0 200.000000 200.000000"
 preserveAspectRatio="xMidYMid meet">
<metadata>
Created by potrace 1.11, written by Peter Selinger 2001-2013
</metadata>
<g transform="translate(0.000000,200.000000) scale(0.100000,-0.100000)"
fill="#000000" stroke="none">
<path d="M960 1880 c-31 -27 -63 -34 -88 -21 -30 16 -59 13 -79 -8 -31 -32
-54 -40 -85 -29 -41 15 -74 3 -88 -32 -12 -30 -35 -43 -80 -46 -14 -1 -28 -2
-33 -3 -4 -1 -13 -13 -19 -28 -19 -45 -39 -63 -70 -63 -33 0 -68 -31 -68 -61
0 -33 -19 -58 -55 -74 -20 -8 -36 -22 -36 -32 -1 -10 -3 -25 -4 -33 -1 -8 -3
-23 -4 -32 0 -10 -16 -25 -33 -34 -45 -23 -49 -31 -42 -95 6 -54 5 -58 -20
-74 -29 -19 -32 -42 -14 -91 10 -30 9 -37 -15 -71 -34 -48 -34 -58 0 -106 24
-34 25 -41 15 -71 -17 -45 -15 -63 7 -85 30 -30 39 -54 30 -76 -13 -33 -10
-63 7 -77 58 -47 73 -66 68 -92 -5 -29 13 -50 64 -78 27 -14 32 -23 32 -52 0
-41 28 -66 73 -66 21 0 32 -8 45 -31 30 -55 38 -61 75 -63 37 -3 77 -29 77
-50 0 -23 40 -37 89 -30 43 6 51 3 72 -19 30 -32 44 -34 92 -18 36 12 41 11
76 -13 47 -33 65 -33 104 0 23 19 37 24 56 19 75 -19 82 -18 111 10 26 25 33
26 78 20 53 -7 56 -6 100 52 11 14 31 24 54 26 41 5 68 22 68 43 0 24 39 54
68 54 36 0 57 24 66 73 6 30 14 41 45 57 42 21 51 36 51 81 0 23 8 34 41 55
l42 26 -7 55 c-6 51 -4 57 23 89 27 30 29 36 19 66 -15 48 -13 74 11 104 27
35 27 50 -5 96 -23 33 -25 41 -15 69 17 49 13 73 -15 98 -24 21 -26 27 -20 72
7 52 -5 89 -29 89 -21 0 -54 48 -50 72 6 31 -11 56 -50 72 -24 11 -36 23 -40
43 -10 46 -29 78 -50 81 -55 8 -66 15 -85 51 -18 36 -53 61 -67 48 -12 -13
-59 17 -73 46 -15 31 -17 32 -80 32 -57 0 -68 3 -91 27 -28 28 -36 29 -82 10
-38 -16 -38 -16 -77 13 -41 30 -60 31 -90 5z"/>
</g>
</svg>
